<?xml version="1.0" encoding="UTF-8" standalone="no"?>
<!DOCTYPE svg PUBLIC "-//W3C//DTD SVG 1.1//EN"
 "http://www.w3.org/Graphics/SVG/1.1/DTD/svg11.dtd">
<!-- Generated by graphviz version 14.0.5 (0)
 -->
<!-- Title: dependency&#45;cruiser output Pages: 1 -->
<svg width="931pt" height="757pt"
 viewBox="0.00 0.00 931.00 757.00" xmlns="http://www.w3.org/2000/svg" xmlns:xlink="http://www.w3.org/1999/xlink">
<g id="graph0" class="graph" transform="scale(1 1) rotate(0) translate(4 752.92)">
<title>dependency&#45;cruiser output</title>
<polygon fill="white" stroke="none" points="-4,4 -4,-752.92 927,-752.92 927,4 -4,4"/>
<g id="clust1" class="cluster">
<title>cluster_..</title>
<path fill="#ffffff" stroke="black" stroke-width="2" d="M791.25,-482.92C791.25,-482.92 903,-482.92 903,-482.92 909,-482.92 915,-488.92 915,-494.92 915,-494.92 915,-728.92 915,-728.92 915,-734.92 909,-740.92 903,-740.92 903,-740.92 791.25,-740.92 791.25,-740.92 785.25,-740.92 779.25,-734.92 779.25,-728.92 779.25,-728.92 779.25,-494.92 779.25,-494.92 779.25,-488.92 785.25,-482.92 791.25,-482.92"/>
<text xml:space="preserve" text-anchor="middle" x="847.12" y="-728.37" font-family="Helvetica,sans-Serif" font-weight="bold" font-size="9.00">..</text>
</g>
<g id="clust2" class="cluster">
<title>cluster_../..</title>
<path fill="#ffffff" stroke="black" stroke-width="2" d="M799.25,-490.92C799.25,-490.92 895,-490.92 895,-490.92 901,-490.92 907,-496.92 907,-502.92 907,-502.92 907,-701.92 907,-701.92 907,-707.92 901,-713.92 895,-713.92 895,-713.92 799.25,-713.92 799.25,-713.92 793.25,-713.92 787.25,-707.92 787.25,-701.92 787.25,-701.92 787.25,-502.92 787.25,-502.92 787.25,-496.92 793.25,-490.92 799.25,-490.92"/>
<text xml:space="preserve" text-anchor="middle" x="847.12" y="-701.37" font-family="Helvetica,sans-Serif" font-weight="bold" font-size="9.00">..</text>
</g>
<g id="clust3" class="cluster">
<title>cluster_../../node_modules</title>
<path fill="#ffffff" stroke="black" stroke-width="2" d="M807.25,-498.92C807.25,-498.92 887,-498.92 887,-498.92 893,-498.92 899,-504.92 899,-510.92 899,-510.92 899,-674.92 899,-674.92 899,-680.92 893,-686.92 887,-686.92 887,-686.92 807.25,-686.92 807.25,-686.92 801.25,-686.92 795.25,-680.92 795.25,-674.92 795.25,-674.92 795.25,-510.92 795.25,-510.92 795.25,-504.92 801.25,-498.92 807.25,-498.92"/>
<text xml:space="preserve" text-anchor="middle" x="847.12" y="-674.37" font-family="Helvetica,sans-Serif" font-weight="bold" font-size="9.00">node_modules</text>
</g>
<g id="clust4" class="cluster">
<title>cluster_../../node_modules/fdir</title>
<path fill="#ffffff" stroke="black" stroke-width="2" d="M815.25,-506.92C815.25,-506.92 879,-506.92 879,-506.92 885,-506.92 891,-512.92 891,-518.92 891,-518.92 891,-584.92 891,-584.92 891,-590.92 885,-596.92 879,-596.92 879,-596.92 815.25,-596.92 815.25,-596.92 809.25,-596.92 803.25,-590.92 803.25,-584.92 803.25,-584.92 803.25,-518.92 803.25,-518.92 803.25,-512.92 809.25,-506.92 815.25,-506.92"/>
<text xml:space="preserve" text-anchor="middle" x="847.12" y="-584.37" font-family="Helvetica,sans-Serif" font-weight="bold" font-size="9.00">fdir</text>
</g>
<g id="clust5" class="cluster">
<title>cluster_../../node_modules/fdir/dist</title>
<path fill="#ffffff" stroke="black" stroke-width="2" d="M823.25,-514.92C823.25,-514.92 871,-514.92 871,-514.92 877,-514.92 883,-520.92 883,-526.92 883,-526.92 883,-557.92 883,-557.92 883,-563.92 877,-569.92 871,-569.92 871,-569.92 823.25,-569.92 823.25,-569.92 817.25,-569.92 811.25,-563.92 811.25,-557.92 811.25,-557.92 811.25,-526.92 811.25,-526.92 811.25,-520.92 817.25,-514.92 823.25,-514.92"/>
<text xml:space="preserve" text-anchor="middle" x="847.12" y="-557.37" font-family="Helvetica,sans-Serif" font-weight="bold" font-size="9.00">dist</text>
</g>
<g id="clust6" class="cluster">
<title>cluster_../../node_modules/lodash.merge</title>
<path fill="#ffffff" stroke="black" stroke-width="2" d="M816.38,-604.92C816.38,-604.92 878.88,-604.92 878.88,-604.92 884.88,-604.92 890.88,-610.92 890.88,-616.92 890.88,-616.92 890.88,-647.92 890.88,-647.92 890.88,-653.92 884.88,-659.92 878.88,-659.92 878.88,-659.92 816.38,-659.92 816.38,-659.92 810.38,-659.92 804.38,-653.92 804.38,-647.92 804.38,-647.92 804.38,-616.92 804.38,-616.92 804.38,-610.92 810.38,-604.92 816.38,-604.92"/>
<text xml:space="preserve" text-anchor="middle" x="847.62" y="-647.37" font-family="Helvetica,sans-Serif" font-weight="bold" font-size="9.00">lodash.merge</text>
</g>
<g id="clust7" class="cluster">
<title>cluster_helpers</title>
<path fill="#ffffff" stroke="black" stroke-width="2" d="M692.88,-526.92C692.88,-526.92 738.88,-526.92 738.88,-526.92 744.88,-526.92 750.88,-532.92 750.88,-538.92 750.88,-538.92 750.88,-569.92 750.88,-569.92 750.88,-575.92 744.88,-581.92 738.88,-581.92 738.88,-581.92 692.88,-581.92 692.88,-581.92 686.88,-581.92 680.88,-575.92 680.88,-569.92 680.88,-569.92 680.88,-538.92 680.88,-538.92 680.88,-532.92 686.88,-526.92 692.88,-526.92"/>
<text xml:space="preserve" text-anchor="middle" x="715.88" y="-569.37" font-family="Helvetica,sans-Serif" font-weight="bold" font-size="9.00">helpers</text>
</g>
<g id="clust8" class="cluster">
<title>cluster_lib</title>
<path fill="#ffffff" stroke="black" stroke-width="2" d="M132.75,-85.92C132.75,-85.92 759.25,-85.92 759.25,-85.92 765.25,-85.92 771.25,-91.92 771.25,-97.92 771.25,-97.92 771.25,-506.92 771.25,-506.92 771.25,-512.92 765.25,-518.92 759.25,-518.92 759.25,-518.92 132.75,-518.92 132.75,-518.92 126.75,-518.92 120.75,-512.92 120.75,-506.92 120.75,-506.92 120.75,-97.92 120.75,-97.92 120.75,-91.92 126.75,-85.92 132.75,-85.92"/>
<text xml:space="preserve" text-anchor="middle" x="446" y="-506.37" font-family="Helvetica,sans-Serif" font-weight="bold" font-size="9.00">lib</text>
</g>
<g id="clust9" class="cluster">
<title>cluster_lib/base_classes</title>
<path fill="#ffffff" stroke="black" stroke-width="2" d="M140.75,-281.92C140.75,-281.92 444.75,-281.92 444.75,-281.92 450.75,-281.92 456.75,-287.92 456.75,-293.92 456.75,-293.92 456.75,-479.92 456.75,-479.92 456.75,-485.92 450.75,-491.92 444.75,-491.92 444.75,-491.92 140.75,-491.92 140.75,-491.92 134.75,-491.92 128.75,-485.92 128.75,-479.92 128.75,-479.92 128.75,-293.92 128.75,-293.92 128.75,-287.92 134.75,-281.92 140.75,-281.92"/>
<text xml:space="preserve" text-anchor="middle" x="292.75" y="-479.37" font-family="Helvetica,sans-Serif" font-weight="bold" font-size="9.00">base_classes</text>
</g>
<g id="clust10" class="cluster">
<title>cluster_lib/factories</title>
<path fill="#ffffff" stroke="black" stroke-width="2" d="M529.5,-93.92C529.5,-93.92 624.5,-93.92 624.5,-93.92 630.5,-93.92 636.5,-99.92 636.5,-105.92 636.5,-105.92 636.5,-136.92 636.5,-136.92 636.5,-142.92 630.5,-148.92 624.5,-148.92 624.5,-148.92 529.5,-148.92 529.5,-148.92 523.5,-148.92 517.5,-142.92 517.5,-136.92 517.5,-136.92 517.5,-105.92 517.5,-105.92 517.5,-99.92 523.5,-93.92 529.5,-93.92"/>
<text xml:space="preserve" text-anchor="middle" x="577" y="-136.37" font-family="Helvetica,sans-Serif" font-weight="bold" font-size="9.00">factories</text>
</g>
<g id="clust11" class="cluster">
<title>cluster_lib/lifecycle_managers</title>
<path fill="#ffffff" stroke="black" stroke-width="2" d="M307.75,-156.92C307.75,-156.92 648.5,-156.92 648.5,-156.92 654.5,-156.92 660.5,-162.92 660.5,-168.92 660.5,-168.92 660.5,-261.92 660.5,-261.92 660.5,-267.92 654.5,-273.92 648.5,-273.92 648.5,-273.92 307.75,-273.92 307.75,-273.92 301.75,-273.92 295.75,-267.92 295.75,-261.92 295.75,-261.92 295.75,-168.92 295.75,-168.92 295.75,-162.92 301.75,-156.92 307.75,-156.92"/>
<text xml:space="preserve" text-anchor="middle" x="478.12" y="-261.37" font-family="Helvetica,sans-Serif" font-weight="bold" font-size="9.00">lifecycle_managers</text>
</g>
<g id="clust12" class="cluster">
<title>cluster_tests</title>
<path fill="#ffffff" stroke="black" stroke-width="2" d="M20,-493.92C20,-493.92 100.75,-493.92 100.75,-493.92 106.75,-493.92 112.75,-499.92 112.75,-505.92 112.75,-505.92 112.75,-536.92 112.75,-536.92 112.75,-542.92 106.75,-548.92 100.75,-548.92 100.75,-548.92 20,-548.92 20,-548.92 14,-548.92 8,-542.92 8,-536.92 8,-536.92 8,-505.92 8,-505.92 8,-499.92 14,-493.92 20,-493.92"/>
<text xml:space="preserve" text-anchor="middle" x="60.38" y="-536.37" font-family="Helvetica,sans-Serif" font-weight="bold" font-size="9.00">tests</text>
</g>
<!-- ../../node_modules/fdir/dist/index.cjs -->
<g id="node1" class="node">
<title>../../node_modules/fdir/dist/index.cjs</title>
<g id="a_node1"><a xlink:href="https://www.npmjs.com/package/fdir" xlink:title="index.cjs">
<polygon fill="#c40b0a" fill-opacity="0.101961" stroke="black" points="875,-542.54 873.4,-544.68 862.17,-544.68 860.56,-542.54 819.25,-542.54 819.25,-523.29 875,-523.29 875,-542.54"/>
<text xml:space="preserve" text-anchor="start" x="827.25" y="-529.99" font-family="Helvetica,sans-Serif" font-size="9.00" fill="#c40b0a">index.cjs</text>
</a>
</g>
</g>
<!-- ../../node_modules/lodash.merge/index.js -->
<g id="node2" class="node">
<title>../../node_modules/lodash.merge/index.js</title>
<g id="a_node2"><a xlink:href="https://www.npmjs.com/package/lodash.merge" xlink:title="index.js">
<polygon fill="#c40b0a" fill-opacity="0.101961" stroke="black" points="874.12,-632.54 872.52,-634.68 861.29,-634.68 859.69,-632.54 820.12,-632.54 820.12,-613.29 874.12,-613.29 874.12,-632.54"/>
<text xml:space="preserve" text-anchor="start" x="829.88" y="-619.99" font-family="Helvetica,sans-Serif" font-size="9.00" fill="#c40b0a">index.js</text>
</a>
</g>
</g>
<!-- buffer -->
<g id="node3" class="node">
<title>buffer</title>
<g id="a_node3"><a xlink:href="https://nodejs.org/api/buffer.html" xlink:title="buffer">
<path fill="#ffffcc" stroke="grey" d="M597.58,-546.54C597.58,-546.54 556.42,-546.54 556.42,-546.54 553.21,-546.54 550,-543.33 550,-540.12 550,-540.12 550,-533.71 550,-533.71 550,-530.5 553.21,-527.29 556.42,-527.29 556.42,-527.29 597.58,-527.29 597.58,-527.29 600.79,-527.29 604,-530.5 604,-533.71 604,-533.71 604,-540.12 604,-540.12 604,-543.33 600.79,-546.54 597.58,-546.54"/>
<text xml:space="preserve" text-anchor="start" x="563.5" y="-533.99" font-family="Helvetica,sans-Serif" font-size="9.00" fill="grey">buffer</text>
</a>
</g>
</g>
<!-- helpers/loader.js -->
<g id="node4" class="node">
<title>helpers/loader.js</title>
<g id="a_node4"><a xlink:href="https://github.com/twyr/entity-value-aggregate-server/src/main/helpers/loader.js" xlink:title="loader.js">
<path fill="#ffffcc" stroke="black" d="M736.46,-554.54C736.46,-554.54 695.29,-554.54 695.29,-554.54 692.08,-554.54 688.88,-551.33 688.88,-548.12 688.88,-548.12 688.88,-541.71 688.88,-541.71 688.88,-538.5 692.08,-535.29 695.29,-535.29 695.29,-535.29 736.46,-535.29 736.46,-535.29 739.67,-535.29 742.88,-538.5 742.88,-541.71 742.88,-541.71 742.88,-548.12 742.88,-548.12 742.88,-551.33 739.67,-554.54 736.46,-554.54"/>
<text xml:space="preserve" text-anchor="start" x="697.88" y="-541.99" font-family="Helvetica,sans-Serif" font-size="9.00">loader.js</text>
</a>
</g>
</g>
<!-- helpers/loader.js&#45;&gt;../../node_modules/fdir/dist/index.cjs -->
<g id="edge1" class="edge">
<title>helpers/loader.js&#45;&gt;../../node_modules/fdir/dist/index.cjs</title>
<path fill="none" stroke="#000000" stroke-opacity="0.200000" d="M743.34,-542.46C763.03,-540.63 790.08,-538.12 811.49,-536.13"/>
<polygon fill="#000000" fill-opacity="0.200000" stroke="#000000" stroke-opacity="0.200000" points="811.51,-538.24 817.29,-535.59 811.13,-534.06 811.51,-538.24"/>
</g>
<!-- path -->
<g id="node5" class="node">
<title>path</title>
<g id="a_node5"><a xlink:href="https://nodejs.org/api/path.html" xlink:title="path">
<path fill="#ffffcc" stroke="grey" d="M867.71,-424.54C867.71,-424.54 826.54,-424.54 826.54,-424.54 823.33,-424.54 820.12,-421.33 820.12,-418.12 820.12,-418.12 820.12,-411.71 820.12,-411.71 820.12,-408.5 823.33,-405.29 826.54,-405.29 826.54,-405.29 867.71,-405.29 867.71,-405.29 870.92,-405.29 874.12,-408.5 874.12,-411.71 874.12,-411.71 874.12,-418.12 874.12,-418.12 874.12,-421.33 870.92,-424.54 867.71,-424.54"/>
<text xml:space="preserve" text-anchor="start" x="836.62" y="-411.99" font-family="Helvetica,sans-Serif" font-size="9.00" fill="grey">path</text>
</a>
</g>
</g>
<!-- helpers/loader.js&#45;&gt;path -->
<g id="edge2" class="edge">
<title>helpers/loader.js&#45;&gt;path</title>
<path fill="none" stroke="#000000" stroke-dasharray="5,2" stroke-opacity="0.200000" d="M726.59,-535.14C748.95,-512.65 804.2,-457.08 831.03,-430.1"/>
<polygon fill="#000000" fill-opacity="0.200000" stroke="#000000" stroke-opacity="0.200000" points="832.49,-431.61 835.23,-425.87 829.51,-428.65 832.49,-431.61"/>
</g>
<!-- index.js -->
<g id="node6" class="node">
<title>index.js</title>
<g id="a_node6"><a xlink:href="https://github.com/twyr/entity-value-aggregate-server/src/main/index.js" xlink:title="index.js">
<path fill="#ffffcc" stroke="black" d="M80.96,-294.54C80.96,-294.54 39.79,-294.54 39.79,-294.54 36.58,-294.54 33.38,-291.33 33.38,-288.12 33.38,-288.12 33.38,-281.71 33.38,-281.71 33.38,-278.5 36.58,-275.29 39.79,-275.29 39.79,-275.29 80.96,-275.29 80.96,-275.29 84.17,-275.29 87.38,-278.5 87.38,-281.71 87.38,-281.71 87.38,-288.12 87.38,-288.12 87.38,-291.33 84.17,-294.54 80.96,-294.54"/>
<text xml:space="preserve" text-anchor="start" x="43.12" y="-281.99" font-family="Helvetica,sans-Serif" font-size="9.00">index.js</text>
</a>
</g>
</g>
<!-- lib/base_classes/evas&#45;base&#45;artifact.js -->
<g id="node7" class="node">
<title>lib/base_classes/evas&#45;base&#45;artifact.js</title>
<g id="a_node7"><a xlink:href="https://github.com/twyr/entity-value-aggregate-server/src/main/lib/base_classes/evas-base-artifact.js" xlink:title="evas&#45;base&#45;artifact.js">
<path fill="#ffffcc" stroke="black" d="M442.33,-355.54C442.33,-355.54 349.92,-355.54 349.92,-355.54 346.71,-355.54 343.5,-352.33 343.5,-349.12 343.5,-349.12 343.5,-342.71 343.5,-342.71 343.5,-339.5 346.71,-336.29 349.92,-336.29 349.92,-336.29 442.33,-336.29 442.33,-336.29 445.54,-336.29 448.75,-339.5 448.75,-342.71 448.75,-342.71 448.75,-349.12 448.75,-349.12 448.75,-352.33 445.54,-355.54 442.33,-355.54"/>
<text xml:space="preserve" text-anchor="start" x="351.5" y="-342.99" font-family="Helvetica,sans-Serif" font-size="9.00">evas&#45;base&#45;artifact.js</text>
</a>
</g>
</g>
<!-- index.js&#45;&gt;lib/base_classes/evas&#45;base&#45;artifact.js -->
<g id="edge3" class="edge">
<title>index.js&#45;&gt;lib/base_classes/evas&#45;base&#45;artifact.js</title>
<path fill="none" stroke="#000000" stroke-width="2" stroke-opacity="0.200000" d="M87.75,-280.38C130.57,-274 217.52,-265.1 287.75,-283.92 322.19,-293.14 357.02,-316.39 377.31,-331.65"/>
<polygon fill="#000000" fill-opacity="0.200000" stroke="#000000" stroke-width="2" stroke-opacity="0.200000" points="380.81,-336.97 377.32,-331.66 383.36,-333.64 380.81,-336.97"/>
</g>
<!-- lib/base_classes/evas&#45;base&#45;bounded&#45;context.js -->
<g id="node8" class="node">
<title>lib/base_classes/evas&#45;base&#45;bounded&#45;context.js</title>
<g id="a_node8"><a xlink:href="https://github.com/twyr/entity-value-aggregate-server/src/main/lib/base_classes/evas-base-bounded-context.js" xlink:title="evas&#45;base&#45;bounded&#45;context.js">
<path fill="#ffffcc" stroke="black" d="M281.33,-340.54C281.33,-340.54 143.17,-340.54 143.17,-340.54 139.96,-340.54 136.75,-337.33 136.75,-334.12 136.75,-334.12 136.75,-327.71 136.75,-327.71 136.75,-324.5 139.96,-321.29 143.17,-321.29 143.17,-321.29 281.33,-321.29 281.33,-321.29 284.54,-321.29 287.75,-324.5 287.75,-327.71 287.75,-327.71 287.75,-334.12 287.75,-334.12 287.75,-337.33 284.54,-340.54 281.33,-340.54"/>
<text xml:space="preserve" text-anchor="start" x="144.75" y="-327.99" font-family="Helvetica,sans-Serif" font-size="9.00">evas&#45;base&#45;bounded&#45;context.js</text>
</a>
</g>
</g>
<!-- index.js&#45;&gt;lib/base_classes/evas&#45;base&#45;bounded&#45;context.js -->
<g id="edge4" class="edge">
<title>index.js&#45;&gt;lib/base_classes/evas&#45;base&#45;bounded&#45;context.js</title>
<path fill="none" stroke="#000000" stroke-width="2" stroke-opacity="0.200000" d="M76.89,-294.77C88.53,-301.71 105.09,-310.68 120.75,-315.92 124.16,-317.05 127.66,-318.11 131.23,-319.08"/>
<polygon fill="#000000" fill-opacity="0.200000" stroke="#000000" stroke-width="2" stroke-opacity="0.200000" points="136.65,-322.65 131.37,-319.12 137.7,-318.58 136.65,-322.65"/>
</g>
<!-- lib/base_classes/evas&#45;base&#45;domain.js -->
<g id="node9" class="node">
<title>lib/base_classes/evas&#45;base&#45;domain.js</title>
<g id="a_node9"><a xlink:href="https://github.com/twyr/entity-value-aggregate-server/src/main/lib/base_classes/evas-base-domain.js" xlink:title="evas&#45;base&#45;domain.js">
<path fill="#ffffcc" stroke="black" d="M259.21,-309.54C259.21,-309.54 165.29,-309.54 165.29,-309.54 162.08,-309.54 158.88,-306.33 158.88,-303.12 158.88,-303.12 158.88,-296.71 158.88,-296.71 158.88,-293.5 162.08,-290.29 165.29,-290.29 165.29,-290.29 259.21,-290.29 259.21,-290.29 262.42,-290.29 265.62,-293.5 265.62,-296.71 265.62,-296.71 265.62,-303.12 265.62,-303.12 265.62,-306.33 262.42,-309.54 259.21,-309.54"/>
<text xml:space="preserve" text-anchor="start" x="166.88" y="-296.99" font-family="Helvetica,sans-Serif" font-size="9.00">evas&#45;base&#45;domain.js</text>
</a>
</g>
</g>
<!-- index.js&#45;&gt;lib/base_classes/evas&#45;base&#45;domain.js -->
<g id="edge5" class="edge">
<title>index.js&#45;&gt;lib/base_classes/evas&#45;base&#45;domain.js</title>
<path fill="none" stroke="#000000" stroke-width="2" stroke-opacity="0.200000" d="M87.82,-287.56C105.42,-289.32 129.26,-291.71 151.3,-293.91"/>
<polygon fill="#000000" fill-opacity="0.200000" stroke="#000000" stroke-width="2" stroke-opacity="0.200000" points="157.17,-296.61 151.41,-293.93 157.59,-292.43 157.17,-296.61"/>
</g>
<!-- lib/base_classes/evas&#45;base&#45;ingress&#45;surface.js -->
<g id="node10" class="node">
<title>lib/base_classes/evas&#45;base&#45;ingress&#45;surface.js</title>
<g id="a_node10"><a xlink:href="https://github.com/twyr/entity-value-aggregate-server/src/main/lib/base_classes/evas-base-ingress-surface.js" xlink:title="evas&#45;base&#45;ingress&#45;surface.js">
<path fill="#ffffcc" stroke="black" d="M276.46,-464.54C276.46,-464.54 148.04,-464.54 148.04,-464.54 144.83,-464.54 141.62,-461.33 141.62,-458.12 141.62,-458.12 141.62,-451.71 141.62,-451.71 141.62,-448.5 144.83,-445.29 148.04,-445.29 148.04,-445.29 276.46,-445.29 276.46,-445.29 279.67,-445.29 282.88,-448.5 282.88,-451.71 282.88,-451.71 282.88,-458.12 282.88,-458.12 282.88,-461.33 279.67,-464.54 276.46,-464.54"/>
<text xml:space="preserve" text-anchor="start" x="149.62" y="-451.99" font-family="Helvetica,sans-Serif" font-size="9.00">evas&#45;base&#45;ingress&#45;surface.js</text>
</a>
</g>
</g>
<!-- index.js&#45;&gt;lib/base_classes/evas&#45;base&#45;ingress&#45;surface.js -->
<g id="edge6" class="edge">
<title>index.js&#45;&gt;lib/base_classes/evas&#45;base&#45;ingress&#45;surface.js</title>
<path fill="none" stroke="#000000" stroke-width="2" stroke-opacity="0.200000" d="M61.93,-294.82C64.04,-322.62 74.09,-401.83 120.75,-439.92 125,-443.39 129.75,-446.19 134.78,-448.45"/>
<polygon fill="#000000" fill-opacity="0.200000" stroke="#000000" stroke-width="2" stroke-opacity="0.200000" points="139.58,-452.62 134.78,-448.45 141.13,-448.71 139.58,-452.62"/>
</g>
<!-- lib/base_classes/evas&#45;base&#45;middleware.js -->
<g id="node11" class="node">
<title>lib/base_classes/evas&#45;base&#45;middleware.js</title>
<g id="a_node11"><a xlink:href="https://github.com/twyr/entity-value-aggregate-server/src/main/lib/base_classes/evas-base-middleware.js" xlink:title="evas&#45;base&#45;middleware.js">
<path fill="#ffffcc" stroke="black" d="M268.58,-371.54C268.58,-371.54 155.92,-371.54 155.92,-371.54 152.71,-371.54 149.5,-368.33 149.5,-365.12 149.5,-365.12 149.5,-358.71 149.5,-358.71 149.5,-355.5 152.71,-352.29 155.92,-352.29 155.92,-352.29 268.58,-352.29 268.58,-352.29 271.79,-352.29 275,-355.5 275,-358.71 275,-358.71 275,-365.12 275,-365.12 275,-368.33 271.79,-371.54 268.58,-371.54"/>
<text xml:space="preserve" text-anchor="start" x="157.5" y="-358.99" font-family="Helvetica,sans-Serif" font-size="9.00">evas&#45;base&#45;middleware.js</text>
</a>
</g>
</g>
<!-- index.js&#45;&gt;lib/base_classes/evas&#45;base&#45;middleware.js -->
<g id="edge7" class="edge">
<title>index.js&#45;&gt;lib/base_classes/evas&#45;base&#45;middleware.js</title>
<path fill="none" stroke="#000000" stroke-width="2" stroke-opacity="0.200000" d="M67.69,-294.75C77.31,-308.83 97.03,-334.39 120.75,-346.92 127.44,-350.44 134.75,-353.18 142.24,-355.3"/>
<polygon fill="#000000" fill-opacity="0.200000" stroke="#000000" stroke-width="2" stroke-opacity="0.200000" points="147.66,-358.85 142.37,-355.33 148.7,-354.79 147.66,-358.85"/>
</g>
<!-- lib/base_classes/evas&#45;base&#45;repository.js -->
<g id="node12" class="node">
<title>lib/base_classes/evas&#45;base&#45;repository.js</title>
<g id="a_node12"><a xlink:href="https://github.com/twyr/entity-value-aggregate-server/src/main/lib/base_classes/evas-base-repository.js" xlink:title="evas&#45;base&#45;repository.js">
<path fill="#ffffcc" stroke="black" d="M264.08,-433.54C264.08,-433.54 160.42,-433.54 160.42,-433.54 157.21,-433.54 154,-430.33 154,-427.12 154,-427.12 154,-420.71 154,-420.71 154,-417.5 157.21,-414.29 160.42,-414.29 160.42,-414.29 264.08,-414.29 264.08,-414.29 267.29,-414.29 270.5,-417.5 270.5,-420.71 270.5,-420.71 270.5,-427.12 270.5,-427.12 270.5,-430.33 267.29,-433.54 264.08,-433.54"/>
<text xml:space="preserve" text-anchor="start" x="162" y="-420.99" font-family="Helvetica,sans-Serif" font-size="9.00">evas&#45;base&#45;repository.js</text>
</a>
</g>
</g>
<!-- index.js&#45;&gt;lib/base_classes/evas&#45;base&#45;repository.js -->
<g id="edge8" class="edge">
<title>index.js&#45;&gt;lib/base_classes/evas&#45;base&#45;repository.js</title>
<path fill="none" stroke="#000000" stroke-width="2" stroke-opacity="0.200000" d="M62.97,-294.92C67.37,-318.89 82.01,-379.81 120.75,-408.92 128.44,-414.69 137.53,-418.57 146.93,-421.14"/>
<polygon fill="#000000" fill-opacity="0.200000" stroke="#000000" stroke-width="2" stroke-opacity="0.200000" points="152.36,-424.59 147.02,-421.16 153.34,-420.51 152.36,-424.59"/>
</g>
<!-- lib/base_classes/evas&#45;base&#45;surface.js -->
<g id="node13" class="node">
<title>lib/base_classes/evas&#45;base&#45;surface.js</title>
<g id="a_node13"><a xlink:href="https://github.com/twyr/entity-value-aggregate-server/src/main/lib/base_classes/evas-base-surface.js" xlink:title="evas&#45;base&#45;surface.js">
<path fill="#ffffcc" stroke="black" d="M258.83,-402.54C258.83,-402.54 165.67,-402.54 165.67,-402.54 162.46,-402.54 159.25,-399.33 159.25,-396.12 159.25,-396.12 159.25,-389.71 159.25,-389.71 159.25,-386.5 162.46,-383.29 165.67,-383.29 165.67,-383.29 258.83,-383.29 258.83,-383.29 262.04,-383.29 265.25,-386.5 265.25,-389.71 265.25,-389.71 265.25,-396.12 265.25,-396.12 265.25,-399.33 262.04,-402.54 258.83,-402.54"/>
<text xml:space="preserve" text-anchor="start" x="167.25" y="-389.99" font-family="Helvetica,sans-Serif" font-size="9.00">evas&#45;base&#45;surface.js</text>
</a>
</g>
</g>
<!-- index.js&#45;&gt;lib/base_classes/evas&#45;base&#45;surface.js -->
<g id="edge9" class="edge">
<title>index.js&#45;&gt;lib/base_classes/evas&#45;base&#45;surface.js</title>
<path fill="none" stroke="#000000" stroke-width="2" stroke-opacity="0.200000" d="M64.68,-295.04C71.63,-314.59 89.73,-357.44 120.75,-377.92 130.11,-384.09 141.16,-388 152.27,-390.43"/>
<polygon fill="#000000" fill-opacity="0.200000" stroke="#000000" stroke-width="2" stroke-opacity="0.200000" points="157.8,-393.63 152.3,-390.44 158.59,-389.51 157.8,-393.63"/>
</g>
<!-- lib/evas&#45;base&#45;class.js -->
<g id="node14" class="node">
<title>lib/evas&#45;base&#45;class.js</title>
<g id="a_node14"><a xlink:href="https://github.com/twyr/entity-value-aggregate-server/src/main/lib/evas-base-class.js" xlink:title="evas&#45;base&#45;class.js">
<path fill="#ffffcc" stroke="black" d="M756.83,-168.54C756.83,-168.54 674.92,-168.54 674.92,-168.54 671.71,-168.54 668.5,-165.33 668.5,-162.12 668.5,-162.12 668.5,-155.71 668.5,-155.71 668.5,-152.5 671.71,-149.29 674.92,-149.29 674.92,-149.29 756.83,-149.29 756.83,-149.29 760.04,-149.29 763.25,-152.5 763.25,-155.71 763.25,-155.71 763.25,-162.12 763.25,-162.12 763.25,-165.33 760.04,-168.54 756.83,-168.54"/>
<text xml:space="preserve" text-anchor="start" x="676.5" y="-155.99" font-family="Helvetica,sans-Serif" font-size="9.00">evas&#45;base&#45;class.js</text>
</a>
</g>
</g>
<!-- index.js&#45;&gt;lib/evas&#45;base&#45;class.js -->
<g id="edge10" class="edge">
<title>index.js&#45;&gt;lib/evas&#45;base&#45;class.js</title>
<path fill="none" stroke="#000000" stroke-width="2" stroke-opacity="0.200000" d="M60.98,-275.05C60.28,-243.15 62.92,-142.29 120.75,-97.92 311.08,48.14 444.58,13.66 660.5,-90.92 682.72,-101.68 698.72,-126.38 707.39,-142.86"/>
<polygon fill="#000000" fill-opacity="0.200000" stroke="#000000" stroke-width="2" stroke-opacity="0.200000" points="708.13,-148.99 707.3,-142.69 711.88,-147.1 708.13,-148.99"/>
</g>
<!-- lib/factories/evas&#45;base&#45;factory.js -->
<g id="node15" class="node">
<title>lib/factories/evas&#45;base&#45;factory.js</title>
<g id="a_node15"><a xlink:href="https://github.com/twyr/entity-value-aggregate-server/src/main/lib/factories/evas-base-factory.js" xlink:title="evas&#45;base&#45;factory.js">
<path fill="#ffffcc" stroke="black" d="M622.08,-121.54C622.08,-121.54 531.92,-121.54 531.92,-121.54 528.71,-121.54 525.5,-118.33 525.5,-115.12 525.5,-115.12 525.5,-108.71 525.5,-108.71 525.5,-105.5 528.71,-102.29 531.92,-102.29 531.92,-102.29 622.08,-102.29 622.08,-102.29 625.29,-102.29 628.5,-105.5 628.5,-108.71 628.5,-108.71 628.5,-115.12 628.5,-115.12 628.5,-118.33 625.29,-121.54 622.08,-121.54"/>
<text xml:space="preserve" text-anchor="start" x="533.5" y="-108.99" font-family="Helvetica,sans-Serif" font-size="9.00">evas&#45;base&#45;factory.js</text>
</a>
</g>
</g>
<!-- index.js&#45;&gt;lib/factories/evas&#45;base&#45;factory.js -->
<g id="edge11" class="edge">
<title>index.js&#45;&gt;lib/factories/evas&#45;base&#45;factory.js</title>
<path fill="none" stroke="#000000" stroke-width="2" stroke-opacity="0.200000" d="M62.9,-274.85C67.14,-250.76 81.44,-189.7 120.75,-161.92 240.83,-77.05 424.99,-88.7 517.99,-101.71"/>
<polygon fill="#000000" fill-opacity="0.200000" stroke="#000000" stroke-width="2" stroke-opacity="0.200000" points="523.78,-104.67 518.14,-101.74 524.38,-100.51 523.78,-104.67"/>
</g>
<!-- lib/lifecycle_managers/bounded&#45;context&#45;lifecycle&#45;manager.js -->
<g id="node16" class="node">
<title>lib/lifecycle_managers/bounded&#45;context&#45;lifecycle&#45;manager.js</title>
<g id="a_node16"><a xlink:href="https://github.com/twyr/entity-value-aggregate-server/src/main/lib/lifecycle_managers/bounded-context-lifecycle-manager.js" xlink:title="bounded&#45;context&#45;lifecycle&#45;manager.js">
<path fill="#ffffcc" stroke="black" d="M482.08,-246.54C482.08,-246.54 310.17,-246.54 310.17,-246.54 306.96,-246.54 303.75,-243.33 303.75,-240.12 303.75,-240.12 303.75,-233.71 303.75,-233.71 303.75,-230.5 306.96,-227.29 310.17,-227.29 310.17,-227.29 482.08,-227.29 482.08,-227.29 485.29,-227.29 488.5,-230.5 488.5,-233.71 488.5,-233.71 488.5,-240.12 488.5,-240.12 488.5,-243.33 485.29,-246.54 482.08,-246.54"/>
<text xml:space="preserve" text-anchor="start" x="311.75" y="-233.99" font-family="Helvetica,sans-Serif" font-size="9.00">bounded&#45;context&#45;lifecycle&#45;manager.js</text>
</a>
</g>
</g>
<!-- index.js&#45;&gt;lib/lifecycle_managers/bounded&#45;context&#45;lifecycle&#45;manager.js -->
<g id="edge12" class="edge">
<title>index.js&#45;&gt;lib/lifecycle_managers/bounded&#45;context&#45;lifecycle&#45;manager.js</title>
<path fill="none" stroke="#000000" stroke-width="2" stroke-opacity="0.200000" d="M82.03,-274.8C93.23,-269.77 107.45,-264.11 120.75,-260.92 178.04,-247.16 243.74,-241.08 296.49,-238.48"/>
<polygon fill="#000000" fill-opacity="0.200000" stroke="#000000" stroke-width="2" stroke-opacity="0.200000" points="302.61,-240.3 296.52,-238.48 302.42,-236.1 302.61,-240.3"/>
</g>
<!-- lib/lifecycle_managers/domain&#45;lifecycle&#45;manager.js -->
<g id="node17" class="node">
<title>lib/lifecycle_managers/domain&#45;lifecycle&#45;manager.js</title>
<g id="a_node17"><a xlink:href="https://github.com/twyr/entity-value-aggregate-server/src/main/lib/lifecycle_managers/domain-lifecycle-manager.js" xlink:title="domain&#45;lifecycle&#45;manager.js">
<path fill="#ffffcc" stroke="black" d="M459.96,-215.54C459.96,-215.54 332.29,-215.54 332.29,-215.54 329.08,-215.54 325.88,-212.33 325.88,-209.12 325.88,-209.12 325.88,-202.71 325.88,-202.71 325.88,-199.5 329.08,-196.29 332.29,-196.29 332.29,-196.29 459.96,-196.29 459.96,-196.29 463.17,-196.29 466.38,-199.5 466.38,-202.71 466.38,-202.71 466.38,-209.12 466.38,-209.12 466.38,-212.33 463.17,-215.54 459.96,-215.54"/>
<text xml:space="preserve" text-anchor="start" x="333.88" y="-202.99" font-family="Helvetica,sans-Serif" font-size="9.00">domain&#45;lifecycle&#45;manager.js</text>
</a>
</g>
</g>
<!-- index.js&#45;&gt;lib/lifecycle_managers/domain&#45;lifecycle&#45;manager.js -->
<g id="edge13" class="edge">
<title>index.js&#45;&gt;lib/lifecycle_managers/domain&#45;lifecycle&#45;manager.js</title>
<path fill="none" stroke="#000000" stroke-width="2" stroke-opacity="0.200000" d="M69.89,-275.03C80.5,-263.46 99.82,-244.75 120.75,-235.92 183.72,-209.33 261.71,-203.06 318.42,-202.72"/>
<polygon fill="#000000" fill-opacity="0.200000" stroke="#000000" stroke-width="2" stroke-opacity="0.200000" points="324.59,-204.81 318.58,-202.72 324.58,-200.61 324.59,-204.81"/>
</g>
<!-- lib/lifecycle_managers/server&#45;lifecycle&#45;manager.js -->
<g id="node18" class="node">
<title>lib/lifecycle_managers/server&#45;lifecycle&#45;manager.js</title>
<g id="a_node18"><a xlink:href="https://github.com/twyr/entity-value-aggregate-server/src/main/lib/lifecycle_managers/server-lifecycle-manager.js" xlink:title="server&#45;lifecycle&#45;manager.js">
<path fill="#ffffcc" stroke="black" d="M456.96,-184.54C456.96,-184.54 335.29,-184.54 335.29,-184.54 332.08,-184.54 328.88,-181.33 328.88,-178.12 328.88,-178.12 328.88,-171.71 328.88,-171.71 328.88,-168.5 332.08,-165.29 335.29,-165.29 335.29,-165.29 456.96,-165.29 456.96,-165.29 460.17,-165.29 463.38,-168.5 463.38,-171.71 463.38,-171.71 463.38,-178.12 463.38,-178.12 463.38,-181.33 460.17,-184.54 456.96,-184.54"/>
<text xml:space="preserve" text-anchor="start" x="336.88" y="-171.99" font-family="Helvetica,sans-Serif" font-size="9.00">server&#45;lifecycle&#45;manager.js</text>
</a>
</g>
</g>
<!-- index.js&#45;&gt;lib/lifecycle_managers/server&#45;lifecycle&#45;manager.js -->
<g id="edge14" class="edge">
<title>index.js&#45;&gt;lib/lifecycle_managers/server&#45;lifecycle&#45;manager.js</title>
<path fill="none" stroke="#000000" stroke-width="2" stroke-opacity="0.200000" d="M65.09,-275.01C72.52,-256.76 91.08,-218.1 120.75,-200.92 181.62,-165.66 263.07,-162.32 321.39,-165.87"/>
<polygon fill="#000000" fill-opacity="0.200000" stroke="#000000" stroke-width="2" stroke-opacity="0.200000" points="327.25,-168.37 321.4,-165.87 327.52,-164.17 327.25,-168.37"/>
</g>
<!-- lib/base_classes/evas&#45;base&#45;artifact.js&#45;&gt;lib/evas&#45;base&#45;class.js -->
<g id="edge15" class="edge">
<title>lib/base_classes/evas&#45;base&#45;artifact.js&#45;&gt;lib/evas&#45;base&#45;class.js</title>
<path fill="none" stroke="#000000" stroke-width="2" stroke-opacity="0.200000" d="M449.07,-345.05C506.92,-341.45 600.19,-327.47 660.5,-276.92 691.45,-250.98 705.7,-203.61 711.48,-177.47"/>
<polygon fill="#000000" fill-opacity="0.200000" stroke="#000000" stroke-width="2" stroke-opacity="0.200000" points="713.48,-178.15 712.63,-171.85 709.37,-177.3 713.48,-178.15"/>
</g>
<!-- lib/base_classes/evas&#45;base&#45;bounded&#45;context.js&#45;&gt;lib/base_classes/evas&#45;base&#45;artifact.js -->
<g id="edge17" class="edge">
<title>lib/base_classes/evas&#45;base&#45;bounded&#45;context.js&#45;&gt;lib/base_classes/evas&#45;base&#45;artifact.js</title>
<path fill="none" stroke="#000000" stroke-width="2" stroke-opacity="0.200000" d="M288.01,-337.08C303.49,-338.36 319.62,-339.69 334.52,-340.92"/>
<polygon fill="#000000" fill-opacity="0.200000" stroke="#000000" stroke-width="2" stroke-opacity="0.200000" points="333.96,-342.98 340.12,-341.38 334.31,-338.79 333.96,-342.98"/>
</g>
<!-- lib/base_classes/evas&#45;base&#45;bounded&#45;context.js&#45;&gt;lib/lifecycle_managers/bounded&#45;context&#45;lifecycle&#45;manager.js -->
<g id="edge16" class="edge">
<title>lib/base_classes/evas&#45;base&#45;bounded&#45;context.js&#45;&gt;lib/lifecycle_managers/bounded&#45;context&#45;lifecycle&#45;manager.js</title>
<path fill="none" stroke="#000000" stroke-width="2" stroke-opacity="0.200000" d="M281.67,-320.9C283.83,-319.42 285.87,-317.77 287.75,-315.92 299.73,-304.1 285.02,-291.87 295.75,-278.92 306.84,-265.53 322.96,-256.33 338.99,-250.04"/>
<polygon fill="#000000" fill-opacity="0.200000" stroke="#000000" stroke-width="2" stroke-opacity="0.200000" points="339.57,-252.06 344.5,-248.04 338.14,-248.11 339.57,-252.06"/>
</g>
<!-- lib/base_classes/evas&#45;base&#45;domain.js&#45;&gt;lib/base_classes/evas&#45;base&#45;artifact.js -->
<g id="edge19" class="edge">
<title>lib/base_classes/evas&#45;base&#45;domain.js&#45;&gt;lib/base_classes/evas&#45;base&#45;artifact.js</title>
<path fill="none" stroke="#000000" stroke-width="2" stroke-opacity="0.200000" d="M265.88,-309.95C273.24,-311.52 280.7,-313.19 287.75,-314.92 309.91,-320.34 334.37,-327.32 354.34,-333.28"/>
<polygon fill="#000000" fill-opacity="0.200000" stroke="#000000" stroke-width="2" stroke-opacity="0.200000" points="353.64,-335.27 359.99,-334.98 354.85,-331.24 353.64,-335.27"/>
</g>
<!-- lib/base_classes/evas&#45;base&#45;domain.js&#45;&gt;lib/lifecycle_managers/domain&#45;lifecycle&#45;manager.js -->
<g id="edge18" class="edge">
<title>lib/base_classes/evas&#45;base&#45;domain.js&#45;&gt;lib/lifecycle_managers/domain&#45;lifecycle&#45;manager.js</title>
<path fill="none" stroke="#000000" stroke-width="2" stroke-opacity="0.200000" d="M220.33,-289.91C233.18,-272.63 262.11,-237.45 295.75,-220.92 302.39,-217.65 309.56,-215.06 316.9,-213"/>
<polygon fill="#000000" fill-opacity="0.200000" stroke="#000000" stroke-width="2" stroke-opacity="0.200000" points="317.32,-215.06 322.63,-211.56 316.3,-210.99 317.32,-215.06"/>
</g>
<!-- lib/base_classes/evas&#45;base&#45;ingress&#45;surface.js&#45;&gt;../../node_modules/lodash.merge/index.js -->
<g id="edge21" class="edge">
<title>lib/base_classes/evas&#45;base&#45;ingress&#45;surface.js&#45;&gt;../../node_modules/lodash.merge/index.js</title>
<g id="a_edge21"><a xlink:title="no&#45;non&#45;package&#45;json">
<path fill="none" stroke="orange" d="M215.08,-464.68C220.93,-492.76 242.04,-573.89 295.75,-606.92 464.82,-710.87 721.68,-656.73 812.71,-632.55"/>
<polygon fill="orange" stroke="orange" points="813.03,-634.64 818.27,-631.05 811.93,-630.59 813.03,-634.64"/>
</a>
</g>
<text xml:space="preserve" text-anchor="middle" x="463.32" y="-658.57" font-family="Helvetica,sans-Serif" font-size="9.00" fill="orange">no&#45;non&#45;package&#45;json</text>
</g>
<!-- lib/base_classes/evas&#45;base&#45;ingress&#45;surface.js&#45;&gt;lib/base_classes/evas&#45;base&#45;artifact.js -->
<g id="edge20" class="edge">
<title>lib/base_classes/evas&#45;base&#45;ingress&#45;surface.js&#45;&gt;lib/base_classes/evas&#45;base&#45;artifact.js</title>
<path fill="none" stroke="#000000" stroke-width="2" stroke-opacity="0.200000" d="M275.85,-444.86C279.96,-443.42 283.96,-441.79 287.75,-439.92 326.47,-420.79 362.24,-384.13 381.13,-362.68"/>
<polygon fill="#000000" fill-opacity="0.200000" stroke="#000000" stroke-width="2" stroke-opacity="0.200000" points="382.55,-364.24 384.89,-358.33 379.37,-361.5 382.55,-364.24"/>
</g>
<!-- lib/base_classes/evas&#45;base&#45;middleware.js&#45;&gt;lib/base_classes/evas&#45;base&#45;artifact.js -->
<g id="edge22" class="edge">
<title>lib/base_classes/evas&#45;base&#45;middleware.js&#45;&gt;lib/base_classes/evas&#45;base&#45;artifact.js</title>
<path fill="none" stroke="#000000" stroke-width="2" stroke-opacity="0.200000" d="M275.33,-356.45C294.34,-354.78 315.23,-352.94 334.17,-351.28"/>
<polygon fill="#000000" fill-opacity="0.200000" stroke="#000000" stroke-width="2" stroke-opacity="0.200000" points="334.19,-353.38 339.99,-350.77 333.82,-349.2 334.19,-353.38"/>
</g>
<!-- lib/base_classes/evas&#45;base&#45;repository.js&#45;&gt;../../node_modules/lodash.merge/index.js -->
<g id="edge24" class="edge">
<title>lib/base_classes/evas&#45;base&#45;repository.js&#45;&gt;../../node_modules/lodash.merge/index.js</title>
<g id="a_edge24"><a xlink:title="no&#45;non&#45;package&#45;json">
<path fill="none" stroke="orange" d="M270.66,-433.71C276.5,-435.23 282.29,-436.96 287.75,-438.92 389.1,-475.26 400.18,-516.48 501.5,-552.92 611.64,-592.52 750.08,-612.06 812.67,-619.38"/>
<polygon fill="orange" stroke="orange" points="812.22,-621.44 818.42,-620.04 812.7,-617.27 812.22,-621.44"/>
</a>
</g>
<text xml:space="preserve" text-anchor="middle" x="486.93" y="-555.19" font-family="Helvetica,sans-Serif" font-size="9.00" fill="orange">no&#45;non&#45;package&#45;json</text>
</g>
<!-- lib/base_classes/evas&#45;base&#45;repository.js&#45;&gt;lib/base_classes/evas&#45;base&#45;artifact.js -->
<g id="edge23" class="edge">
<title>lib/base_classes/evas&#45;base&#45;repository.js&#45;&gt;lib/base_classes/evas&#45;base&#45;artifact.js</title>
<path fill="none" stroke="#000000" stroke-width="2" stroke-opacity="0.200000" d="M270.75,-414.35C276.57,-412.79 282.33,-410.99 287.75,-408.92 319.8,-396.68 353.38,-375.4 374.28,-360.99"/>
<polygon fill="#000000" fill-opacity="0.200000" stroke="#000000" stroke-width="2" stroke-opacity="0.200000" points="375.45,-362.74 379.16,-357.58 373.04,-359.3 375.45,-362.74"/>
</g>
<!-- lib/base_classes/evas&#45;base&#45;surface.js&#45;&gt;lib/base_classes/evas&#45;base&#45;artifact.js -->
<g id="edge25" class="edge">
<title>lib/base_classes/evas&#45;base&#45;surface.js&#45;&gt;lib/base_classes/evas&#45;base&#45;artifact.js</title>
<path fill="none" stroke="#000000" stroke-width="2" stroke-opacity="0.200000" d="M265.49,-383.02C272.98,-381.42 280.58,-379.7 287.75,-377.92 310.54,-372.24 335.72,-364.8 355.97,-358.52"/>
<polygon fill="#000000" fill-opacity="0.200000" stroke="#000000" stroke-width="2" stroke-opacity="0.200000" points="356.33,-360.61 361.43,-356.81 355.08,-356.6 356.33,-360.61"/>
</g>
<!-- lib/factories/evas&#45;base&#45;factory.js&#45;&gt;lib/evas&#45;base&#45;class.js -->
<g id="edge26" class="edge">
<title>lib/factories/evas&#45;base&#45;factory.js&#45;&gt;lib/evas&#45;base&#45;class.js</title>
<path fill="none" stroke="#000000" stroke-width="2" stroke-opacity="0.200000" d="M607.36,-122C627.75,-129 655.1,-138.39 677.11,-145.95"/>
<polygon fill="#000000" fill-opacity="0.200000" stroke="#000000" stroke-width="2" stroke-opacity="0.200000" points="676.34,-147.9 682.7,-147.87 677.7,-143.93 676.34,-147.9"/>
</g>
<!-- lib/lifecycle_managers/bounded&#45;context&#45;lifecycle&#45;manager.js&#45;&gt;buffer -->
<g id="edge29" class="edge">
<title>lib/lifecycle_managers/bounded&#45;context&#45;lifecycle&#45;manager.js&#45;&gt;buffer</title>
<path fill="none" stroke="#000000" stroke-dasharray="5,2" stroke-opacity="0.200000" d="M436.13,-247.03C454.22,-253.49 474.71,-263.61 488.5,-278.92 553.77,-351.34 570.66,-474.4 574.76,-519.6"/>
<polygon fill="#000000" fill-opacity="0.200000" stroke="#000000" stroke-opacity="0.200000" points="572.65,-519.56 575.24,-525.36 576.84,-519.21 572.65,-519.56"/>
</g>
<!-- lib/lifecycle_managers/bounded&#45;context&#45;lifecycle&#45;manager.js&#45;&gt;lib/factories/evas&#45;base&#45;factory.js -->
<g id="edge27" class="edge">
<title>lib/lifecycle_managers/bounded&#45;context&#45;lifecycle&#45;manager.js&#45;&gt;lib/factories/evas&#45;base&#45;factory.js</title>
<path fill="none" stroke="#000000" stroke-width="2" stroke-opacity="0.200000" d="M482.62,-226.82C484.69,-225.34 486.66,-223.71 488.5,-221.92 510.54,-200.44 483.54,-178.9 501.5,-153.92 510.4,-141.53 524.14,-132.33 537.42,-125.74"/>
<polygon fill="#000000" fill-opacity="0.200000" stroke="#000000" stroke-width="2" stroke-opacity="0.200000" points="538.26,-127.67 542.83,-123.24 536.5,-123.85 538.26,-127.67"/>
</g>
<!-- lib/lifecycle_managers/evas&#45;base&#45;lifecycle&#45;manager.js -->
<g id="node19" class="node">
<title>lib/lifecycle_managers/evas&#45;base&#45;lifecycle&#45;manager.js</title>
<g id="a_node19"><a xlink:href="https://github.com/twyr/entity-value-aggregate-server/src/main/lib/lifecycle_managers/evas-base-lifecycle-manager.js" xlink:title="evas&#45;base&#45;lifecycle&#45;manager.js">
<path fill="#ffffcc" stroke="black" d="M646.08,-230.54C646.08,-230.54 507.92,-230.54 507.92,-230.54 504.71,-230.54 501.5,-227.33 501.5,-224.12 501.5,-224.12 501.5,-217.71 501.5,-217.71 501.5,-214.5 504.71,-211.29 507.92,-211.29 507.92,-211.29 646.08,-211.29 646.08,-211.29 649.29,-211.29 652.5,-214.5 652.5,-217.71 652.5,-217.71 652.5,-224.12 652.5,-224.12 652.5,-227.33 649.29,-230.54 646.08,-230.54"/>
<text xml:space="preserve" text-anchor="start" x="509.5" y="-217.99" font-family="Helvetica,sans-Serif" font-size="9.00">evas&#45;base&#45;lifecycle&#45;manager.js</text>
</a>
</g>
</g>
<!-- lib/lifecycle_managers/bounded&#45;context&#45;lifecycle&#45;manager.js&#45;&gt;lib/lifecycle_managers/evas&#45;base&#45;lifecycle&#45;manager.js -->
<g id="edge28" class="edge">
<title>lib/lifecycle_managers/bounded&#45;context&#45;lifecycle&#45;manager.js&#45;&gt;lib/lifecycle_managers/evas&#45;base&#45;lifecycle&#45;manager.js</title>
<path fill="none" stroke="#000000" stroke-width="2" stroke-opacity="0.200000" d="M488.92,-228.7C490.08,-228.6 491.24,-228.5 492.39,-228.39"/>
<polygon fill="#000000" fill-opacity="0.200000" stroke="#000000" stroke-width="2" stroke-opacity="0.200000" points="492.41,-230.5 498.2,-227.87 492.04,-226.32 492.41,-230.5"/>
</g>
<!-- lib/lifecycle_managers/domain&#45;lifecycle&#45;manager.js&#45;&gt;lib/factories/evas&#45;base&#45;factory.js -->
<g id="edge30" class="edge">
<title>lib/lifecycle_managers/domain&#45;lifecycle&#45;manager.js&#45;&gt;lib/factories/evas&#45;base&#45;factory.js</title>
<path fill="none" stroke="#000000" stroke-width="2" stroke-opacity="0.200000" d="M466.52,-202.75C474.52,-200.09 482.09,-196.29 488.5,-190.92 501.86,-179.72 490.3,-167.27 501.5,-153.92 511.71,-141.74 526.4,-132.41 540.04,-125.66"/>
<polygon fill="#000000" fill-opacity="0.200000" stroke="#000000" stroke-width="2" stroke-opacity="0.200000" points="540.61,-127.71 545.16,-123.27 538.84,-123.91 540.61,-127.71"/>
</g>
<!-- lib/lifecycle_managers/domain&#45;lifecycle&#45;manager.js&#45;&gt;lib/lifecycle_managers/evas&#45;base&#45;lifecycle&#45;manager.js -->
<g id="edge31" class="edge">
<title>lib/lifecycle_managers/domain&#45;lifecycle&#45;manager.js&#45;&gt;lib/lifecycle_managers/evas&#45;base&#45;lifecycle&#45;manager.js</title>
<path fill="none" stroke="#000000" stroke-width="2" stroke-opacity="0.200000" d="M466.79,-211.76C475.17,-212.46 483.78,-213.18 492.33,-213.9"/>
<polygon fill="#000000" fill-opacity="0.200000" stroke="#000000" stroke-width="2" stroke-opacity="0.200000" points="492.02,-215.98 498.18,-214.39 492.38,-211.8 492.02,-215.98"/>
</g>
<!-- lib/lifecycle_managers/server&#45;lifecycle&#45;manager.js&#45;&gt;lib/factories/evas&#45;base&#45;factory.js -->
<g id="edge35" class="edge">
<title>lib/lifecycle_managers/server&#45;lifecycle&#45;manager.js&#45;&gt;lib/factories/evas&#45;base&#45;factory.js</title>
<path fill="none" stroke="#000000" stroke-width="2" stroke-opacity="0.200000" d="M425.86,-164.79C456.64,-153.96 505.56,-136.72 539.14,-124.9"/>
<polygon fill="#000000" fill-opacity="0.200000" stroke="#000000" stroke-width="2" stroke-opacity="0.200000" points="539.52,-126.99 544.48,-123.02 538.12,-123.03 539.52,-126.99"/>
</g>
<!-- lib/lifecycle_managers/server&#45;lifecycle&#45;manager.js&#45;&gt;lib/lifecycle_managers/evas&#45;base&#45;lifecycle&#45;manager.js -->
<g id="edge36" class="edge">
<title>lib/lifecycle_managers/server&#45;lifecycle&#45;manager.js&#45;&gt;lib/lifecycle_managers/evas&#45;base&#45;lifecycle&#45;manager.js</title>
<path fill="none" stroke="#000000" stroke-width="2" stroke-opacity="0.200000" d="M463.79,-184.44C472.16,-186.05 480.56,-187.87 488.5,-189.92 506.98,-194.66 527.07,-201.65 543.34,-207.79"/>
<polygon fill="#000000" fill-opacity="0.200000" stroke="#000000" stroke-width="2" stroke-opacity="0.200000" points="542.29,-209.63 548.64,-209.82 543.79,-205.71 542.29,-209.63"/>
</g>
<!-- lib/lifecycle_managers/evas&#45;base&#45;lifecycle&#45;manager.js&#45;&gt;helpers/loader.js -->
<g id="edge32" class="edge">
<title>lib/lifecycle_managers/evas&#45;base&#45;lifecycle&#45;manager.js&#45;&gt;helpers/loader.js</title>
<path fill="none" stroke="#000000" stroke-width="2" stroke-opacity="0.200000" d="M582.25,-230.97C601.65,-276.89 681.98,-467.06 707.24,-526.84"/>
<polygon fill="#000000" fill-opacity="0.200000" stroke="#000000" stroke-width="2" stroke-opacity="0.200000" points="705.23,-527.48 709.5,-532.19 709.1,-525.85 705.23,-527.48"/>
</g>
<!-- lib/lifecycle_managers/evas&#45;base&#45;lifecycle&#45;manager.js&#45;&gt;path -->
<g id="edge34" class="edge">
<title>lib/lifecycle_managers/evas&#45;base&#45;lifecycle&#45;manager.js&#45;&gt;path</title>
<path fill="none" stroke="#000000" stroke-dasharray="5,2" stroke-opacity="0.200000" d="M591.66,-230.8C635.76,-262.71 774.41,-363.03 826.28,-400.56"/>
<polygon fill="#000000" fill-opacity="0.200000" stroke="#000000" stroke-opacity="0.200000" points="824.85,-402.11 830.94,-403.93 827.31,-398.71 824.85,-402.11"/>
</g>
<!-- lib/lifecycle_managers/evas&#45;base&#45;lifecycle&#45;manager.js&#45;&gt;lib/evas&#45;base&#45;class.js -->
<g id="edge33" class="edge">
<title>lib/lifecycle_managers/evas&#45;base&#45;lifecycle&#45;manager.js&#45;&gt;lib/evas&#45;base&#45;class.js</title>
<path fill="none" stroke="#000000" stroke-width="2" stroke-opacity="0.200000" d="M600.3,-210.82C623.16,-200.46 658.9,-184.27 684.37,-172.73"/>
<polygon fill="#000000" fill-opacity="0.200000" stroke="#000000" stroke-width="2" stroke-opacity="0.200000" points="685.23,-174.65 689.83,-170.26 683.5,-170.82 685.23,-174.65"/>
</g>
<!-- tests/setup&#45;mocks.cjs -->
<g id="node20" class="node">
<title>tests/setup&#45;mocks.cjs</title>
<g id="a_node20"><a xlink:href="https://github.com/twyr/entity-value-aggregate-server/src/main/tests/setup-mocks.cjs" xlink:title="no&#45;orphans">
<path fill="#ccffcc" stroke="orange" d="M98.33,-521.54C98.33,-521.54 22.42,-521.54 22.42,-521.54 19.21,-521.54 16,-518.33 16,-515.12 16,-515.12 16,-508.71 16,-508.71 16,-505.5 19.21,-502.29 22.42,-502.29 22.42,-502.29 98.33,-502.29 98.33,-502.29 101.54,-502.29 104.75,-505.5 104.75,-508.71 104.75,-508.71 104.75,-515.12 104.75,-515.12 104.75,-518.33 101.54,-521.54 98.33,-521.54"/>
<text xml:space="preserve" text-anchor="start" x="24" y="-508.99" font-family="Helvetica,sans-Serif" font-size="9.00" fill="orange">setup&#45;mocks.cjs</text>
</a>
</g>
</g>
</g>
</svg>
